<svg width="26" height="35" viewBox="0 0 26 35" fill="none" xmlns="http://www.w3.org/2000/svg">
<path d="M0.188679 17.7051C0.694934 18.9015 1.98762 19.365 3.12823 19.7735C3.76207 20.001 4.41785 20.236 4.71487 20.527C4.88685 20.696 5.03944 20.9839 5.18285 21.3159L1.50433 31.969C1.43909 32.1565 1.43224 32.3588 1.48465 32.5502C1.53705 32.7415 1.64635 32.9133 1.79864 33.0436C1.95094 33.1739 2.13935 33.257 2.33993 33.2821C2.54052 33.3073 2.74421 33.2735 2.92511 33.1849L5.53651 31.914L6.87105 34.4569C6.96264 34.6317 7.10482 34.7762 7.2798 34.8723C7.45478 34.9685 7.65479 35.0119 7.85483 34.9972C8.05487 34.9825 8.24606 34.9104 8.40448 34.7899C8.5629 34.6693 8.68153 34.5057 8.74552 34.3194L12.3332 23.9098C12.5139 23.8588 12.6853 23.8218 12.8333 23.8218C12.9813 23.8218 13.1528 23.8588 13.3335 23.9093L16.9211 34.3189C16.9853 34.505 17.1039 34.6685 17.2623 34.789C17.4207 34.9094 17.6118 34.9815 17.8117 34.9962C18.0117 35.0109 18.2116 34.9676 18.3866 34.8717C18.5616 34.7758 18.7038 34.6315 18.7956 34.4569L20.1302 31.914L22.7416 33.1849C22.9225 33.2735 23.1262 33.3073 23.3267 33.2821C23.5273 33.257 23.7157 33.1739 23.868 33.0436C24.0203 32.9133 24.1296 32.7415 24.182 32.5502C24.2344 32.3588 24.2276 32.1565 24.1623 31.969L20.4843 21.3159C20.6272 20.9839 20.7803 20.696 20.9523 20.527C21.2498 20.236 21.9051 20.001 22.5395 19.7735C23.6796 19.3645 24.9722 18.9015 25.479 17.7056C25.9669 16.5506 25.4055 15.3512 24.9095 14.2932C24.6176 13.6703 24.3154 13.0263 24.3154 12.5733C24.3154 12.1198 24.6176 11.4758 24.9095 10.8524C25.4055 9.79441 25.9669 8.59546 25.4785 7.44051C24.9722 6.24406 23.6796 5.78108 22.5389 5.3721C21.9051 5.14511 21.2498 4.91012 20.9523 4.61863C20.6553 4.32764 20.4149 3.68517 20.1832 3.0637C19.7663 1.94674 19.2932 0.680294 18.0725 0.184815C16.8941 -0.295166 15.6688 0.256311 14.5894 0.741791C13.9535 1.02828 13.2957 1.32377 12.8333 1.32377C12.371 1.32377 11.7131 1.02828 11.0773 0.741791C9.99738 0.256311 8.77155 -0.294165 7.59471 0.184315C6.37347 0.680294 5.90039 1.94724 5.48344 3.06419C5.25175 3.68567 5.01138 4.32764 4.71436 4.61913C4.41734 4.91012 3.76156 5.14511 3.12721 5.3726C1.98711 5.78108 0.694424 6.24456 0.187658 7.44051C-0.300225 8.59546 0.261147 9.79442 0.757196 10.8529C1.04911 11.4758 1.35123 12.1198 1.35123 12.5728C1.35123 13.0263 1.04911 13.6703 0.757196 14.2927C0.261147 15.3512 -0.300226 16.5506 0.188168 17.7056L0.188679 17.7051ZM7.58348 31.44L6.89197 30.1221C6.76926 29.8885 6.55762 29.7116 6.30283 29.6296C6.04805 29.5476 5.77057 29.5672 5.53039 29.6841L4.23005 30.3171L6.41072 23.9998C6.71029 24.4088 7.08539 24.7548 7.59522 24.9618C7.91571 25.0918 8.23927 25.1458 8.56231 25.1458C8.98997 25.1458 9.41662 25.0508 9.83407 24.9123L7.58348 31.44ZM20.1373 29.6841C19.8971 29.5672 19.6196 29.5476 19.3649 29.6296C19.1101 29.7116 18.8984 29.8885 18.7757 30.1221L18.0837 31.44L15.8331 24.9118C16.567 25.1548 17.3294 25.2638 18.0725 24.9618C18.5828 24.7543 18.9574 24.4088 19.2565 23.9998L21.4376 30.3171L20.1373 29.6841ZM2.6133 10.0179C2.30709 9.36593 1.92689 8.55447 2.07438 8.20698C2.23769 7.821 3.08332 7.51801 3.82994 7.25052C4.67149 6.94853 5.54213 6.63655 6.15811 6.03307C6.77409 5.4296 7.09254 4.57613 7.40078 3.75117C7.67381 3.0207 7.98308 2.19173 8.37757 2.03174C8.43948 2.00884 8.50535 1.99797 8.5715 1.99974C8.98181 1.99974 9.66209 2.30573 10.226 2.55972C11.0609 2.9352 11.9249 3.32368 12.8338 3.32368C13.7428 3.32368 14.6068 2.9352 15.4417 2.55972C16.1077 2.26023 16.937 1.88774 17.2906 2.03174C17.6846 2.19173 17.9939 3.0202 18.2669 3.75117C18.5751 4.57613 18.8936 5.4291 19.5096 6.03257C20.1256 6.63605 20.9962 6.94853 21.8388 7.25052C22.5844 7.51801 23.4305 7.821 23.5933 8.20648C23.7413 8.55447 23.3606 9.36593 23.0544 10.0179C22.6716 10.8364 22.2746 11.6828 22.2746 12.5728C22.2746 13.4628 22.6711 14.3097 23.0544 15.1277C23.3606 15.7802 23.7408 16.5916 23.5933 16.9391C23.43 17.3246 22.5844 17.6281 21.8388 17.8956C20.9967 18.1976 20.1256 18.5096 19.5096 19.113C18.8936 19.7165 18.5751 20.5695 18.2669 21.3949C17.9934 22.1254 17.6846 22.9544 17.2906 23.1144C16.9365 23.2604 16.1077 22.8859 15.4417 22.5864C14.6068 22.2104 13.7428 21.8219 12.8338 21.8219C11.9249 21.8219 11.0609 22.2104 10.226 22.5864C9.56053 22.8864 8.73225 23.2604 8.37706 23.1144C7.98308 22.9544 7.67432 22.1254 7.40078 21.3944C7.09254 20.5695 6.77409 19.7165 6.15811 19.113C5.54213 18.5096 4.67149 18.1976 3.82943 17.8956C3.08332 17.6281 2.23718 17.3251 2.07438 16.9391C1.92638 16.5916 2.30709 15.7802 2.6133 15.1277C2.99605 14.3097 3.39309 13.4633 3.39309 12.5728C3.39309 11.6828 2.99656 10.8364 2.6133 10.0179Z" fill="#FF2E2E"/>
<path d="M12.8338 19.5065C16.7359 19.5065 19.9112 16.3961 19.9112 12.5733C19.9112 8.75046 16.7359 5.63959 12.8338 5.63959C8.9318 5.63959 5.75647 8.74996 5.75647 12.5733C5.75647 16.3966 8.9318 19.5065 12.8338 19.5065ZM12.8338 7.6395C15.6106 7.6395 17.8699 9.85291 17.8699 12.5733C17.8699 15.2937 15.6106 17.5066 12.8338 17.5066C10.0571 17.5066 7.79782 15.2932 7.79782 12.5733C7.79782 9.85341 10.0571 7.6395 12.8338 7.6395Z" fill="#FF2E2E"/>
</svg>

