<svg width="28" height="28" viewBox="0 0 40 40" fill="none"
                xmlns="http://www.w3.org/2000/svg">
                <g clip-path="url(#clip0_68_1272)">
                    <path
                        d="M20 40C31.0457 40 40 31.0457 40 20C40 8.95431 31.0457 0 20 0C8.95431 0 0 8.95431 0 20C0 31.0457 8.95431 40 20 40Z"
                        fill="url(#paint0_linear_68_1272)" />
                    <path
                        d="M7.44848 20.9784C9.78648 19.6906 12.3963 18.6158 14.8348 17.5354C19.03 15.7659 23.2418 14.0271 27.4961 12.4083C28.3238 12.1324 29.8111 11.8628 29.957 13.0894C29.877 14.8258 29.5486 16.5519 29.3233 18.2781C28.7515 22.0741 28.0903 25.8571 27.4458 29.6406C27.2236 30.9008 25.645 31.5533 24.6348 30.7468C22.2071 29.1068 19.7608 27.4831 17.3641 25.8051C16.5791 25.0074 17.3071 23.8618 18.0081 23.2921C20.0076 21.3216 22.1281 19.6474 24.0231 17.5751C24.5343 16.3408 23.024 17.3811 22.5258 17.6999C19.7885 19.5863 17.1181 21.5878 14.2321 23.2456C12.758 24.0571 11.0398 23.3636 9.56631 22.9106C8.24514 22.3638 6.30914 21.8126 7.44831 20.9786L7.44848 20.9784Z"
                        fill="white" />
                </g>
                <defs>
                    <linearGradient id="paint0_linear_68_1272" x1="26.6683" y1="6.668"
                        x2="16.6683" y2="30" gradientUnits="userSpaceOnUse">
                        <stop stop-color="#37AEE2" />
                        <stop offset="1" stop-color="#1E96C8" />
                    </linearGradient>
                    <clipPath id="clip0_68_1272">
                        <rect width="40" height="40" fill="white" />
                    </clipPath>
                </defs>
</svg>