<svg width="30" height="30" viewBox="0 0 30 30" fill="none" xmlns="http://www.w3.org/2000/svg">
<path d="M29.1599 10.0952L28.9999 9.5548C27.9104 6.74113 25.9961 4.32293 23.5083 2.61772C21.0206 0.912511 18.0757 0 15.0603 0C12.0449 0 9.1 0.912511 6.61224 2.61772C4.12449 4.32293 2.21018 6.74113 1.12065 9.5548H1.00066L0.810662 10.0952C0.258447 11.6806 -0.0155847 13.3497 0.00068406 15.0285V16.0292C0.0664006 17.0211 0.233945 18.0037 0.500671 18.9612L0.650667 19.5216C1.6128 22.5618 3.51748 25.2163 6.08858 27.1003C8.65968 28.9844 11.7636 30 14.9503 30C18.137 30 21.2409 28.9844 23.812 27.1003C26.3831 25.2163 28.2878 22.5618 29.2499 19.5216L29.3999 18.9512C29.7751 17.6766 29.9769 16.3571 29.9999 15.0285C30.0065 13.3479 29.7223 11.6788 29.1599 10.0952ZM20.8901 19.0313C16.9753 19.4612 13.0253 19.4612 9.11044 19.0313C6.82543 18.78 4.55792 18.389 2.32062 17.8605C2.32062 17.8605 2.32062 17.8004 2.32062 17.7704C2.23062 17.3701 2.16063 16.9599 2.11063 16.5496C2.11558 16.4696 2.11558 16.3894 2.11063 16.3094C2.00063 15.8891 2.00063 15.4588 2.00063 15.0285V13.6976C2.00063 13.5876 2.00063 13.2273 2.09063 13.0072C2.18063 12.787 2.09063 12.747 2.16063 12.6269C2.23062 12.5068 2.24062 12.2066 2.29062 11.9965C2.34062 11.7863 2.36062 11.7363 2.39062 11.6062L2.48062 11.326C4.55304 10.9166 6.64603 10.6192 8.75045 10.4354C12.8573 10.0351 16.9933 10.0351 21.1001 10.4354C23.2012 10.62 25.2908 10.9172 27.36 11.326L27.45 11.6062C27.45 11.7363 27.52 11.8664 27.55 12.0065C27.58 12.1466 27.6399 12.4067 27.6799 12.6169C27.7199 12.827 27.6799 12.8771 27.7499 13.0072C27.8199 13.1372 27.8199 13.4575 27.8399 13.6876C27.8599 13.9178 27.8399 13.9078 27.8399 14.0279V15.0285C27.8399 15.3488 27.8399 15.8891 27.7699 16.3194C27.765 16.3994 27.765 16.4796 27.7699 16.5596C27.7199 16.9699 27.65 17.3802 27.56 17.7804V17.8705C25.3619 18.3908 23.1346 18.7785 20.8901 19.0313ZM26.56 9.11449C24.89 8.8243 23.2101 8.57412 21.5601 8.42402C21.7984 7.06779 22.1326 5.73019 22.5601 4.42128C23.0901 4.78931 23.5885 5.20102 24.05 5.65212C25.0787 6.65764 25.9276 7.83209 26.56 9.1245V9.11449ZM20.8101 3.40058C20.2641 4.98976 19.8428 6.61915 19.5502 8.27392C16.5235 8.07378 13.487 8.07378 10.4604 8.27392C10.1715 6.61733 9.74676 4.98737 9.19044 3.40058C10.9927 2.49254 12.9825 2.01958 15.0003 2.01958C17.0181 2.01958 19.0079 2.49254 20.8101 3.40058ZM6.00052 5.70216C6.45061 5.25501 6.9318 4.84035 7.44049 4.46131C7.86981 5.76968 8.20401 7.10742 8.44046 8.46405C6.7705 8.61415 5.09055 8.86432 3.44059 9.15452C4.09394 7.86793 4.95938 6.70078 6.00052 5.70216ZM3.0006 20.082C4.78056 20.4623 6.58051 20.7525 8.37046 20.9626C8.12047 22.4636 7.78048 23.9647 7.37049 25.5457C6.8614 25.1854 6.38006 24.7874 5.93053 24.3549C4.67741 23.1417 3.68101 21.6885 3.0006 20.082ZM9.13044 26.6365C9.64639 24.8333 10.0604 23.0025 10.3704 21.1527C11.9004 21.2728 13.4403 21.3629 14.9803 21.3629C16.5202 21.3629 18.0502 21.2728 19.5802 21.1527C19.8965 23.0021 20.3138 24.8328 20.8301 26.6365C19.0175 27.5576 17.0132 28.0377 14.9803 28.0377C12.9473 28.0377 10.9431 27.5576 9.13044 26.6365ZM24.03 24.3549C23.584 24.7873 23.106 25.1853 22.6001 25.5457C22.1701 23.9647 21.8301 22.4536 21.6001 20.9626C23.3901 20.7525 25.19 20.4623 26.98 20.082C26.3015 21.6896 25.3048 23.1431 24.05 24.3549H24.03Z" fill="#FF2E2E"/>
</svg>
