<svg width="32" height="32" viewBox="0 0 32 32" fill="none" xmlns="http://www.w3.org/2000/svg">
<path d="M16 32C7.2 32 0 24.8 0 16C0 7.2 7.2 0 16 0C24.8 0 32 7.2 32 16C32 24.8 24.8 32 16 32ZM16 2.66667C8.66667 2.66667 2.66667 8.66667 2.66667 16C2.66667 23.3333 8.66667 29.3333 16 29.3333C23.3333 29.3333 29.3333 23.3333 29.3333 16C29.3333 8.66667 23.3333 2.66667 16 2.66667Z" fill="black"/>
<path d="M14.6667 21.3333C14.2667 21.3333 14 21.2 13.7333 20.9333L9.73333 16.9333C9.2 16.4 9.2 15.6 9.73333 15.0667C10.2667 14.5333 11.0667 14.5333 11.6 15.0667L15.6 19.0667C16.1333 19.6 16.1333 20.4 15.6 20.9333C15.3333 21.2 15.0667 21.3333 14.6667 21.3333Z" fill="black"/>
<path d="M14.6667 21.3333C14.2667 21.3333 14 21.2 13.7333 20.9333C13.2 20.4 13.2 19.6 13.7333 19.0667L21.7333 11.0667C22.2667 10.5333 23.0667 10.5333 23.6 11.0667C24.1333 11.6 24.1333 12.4 23.6 12.9333L15.6 20.9333C15.3333 21.2 15.0667 21.3333 14.6667 21.3333Z" fill="black"/>
</svg>
