<svg width="31" height="30" viewBox="0 0 31 30" fill="none" xmlns="http://www.w3.org/2000/svg">
<g clip-path="url(#clip0_289_5815)">
<path d="M15.202 15.06L7.94751 2.51456C10.1359 1.19481 12.6466 0.505793 15.202 0.523654V15.06Z" fill="#FCDAB3"/>
<path d="M15.2021 15.06L2.65662 7.80548C3.90414 5.57885 5.74273 3.74026 7.96935 2.49274L15.2021 15.06Z" fill="#FFF7BD"/>
<path d="M15.2021 15.06H0.687586C0.655986 12.5086 1.32987 9.9981 2.63486 7.80548L15.2021 15.06Z" fill="#ECF4CC"/>
<path d="M15.202 15.06L2.65658 22.32C1.35141 20.1255 0.677568 17.6131 0.709325 15.06H15.202Z" fill="#F6DBE7"/>
<path d="M15.202 15.06L7.94749 27.6327C5.72207 26.3836 3.88388 24.5454 2.63477 22.32L15.202 15.06Z" fill="#D6BBD6"/>
<path d="M15.202 15.06V29.5746C12.6512 29.6075 10.1408 28.9356 7.94751 27.6327L15.202 15.06Z" fill="#AFC6DF"/>
<path d="M15.202 15.06L22.462 27.6327C20.267 28.9363 17.7547 29.6082 15.202 29.5746V15.06Z" fill="#8AD2A1"/>
<path d="M15.202 15.06L27.7748 22.3418C26.5256 24.5672 24.6874 26.4054 22.462 27.6545L15.202 15.06Z" fill="#FBAB89"/>
<path d="M15.202 15.06H29.722C29.7578 17.6205 29.0838 20.1409 27.7748 22.3418L15.202 15.06Z" fill="#D9EDC8"/>
<path d="M15.202 15.06L27.7748 7.80548C29.0798 9.9981 29.7536 12.5086 29.722 15.06H15.202Z" fill="#CCE5BC"/>
<path d="M15.202 15.06L22.462 2.51453C24.6887 3.76205 26.5272 5.60064 27.7748 7.82726L15.202 15.06Z" fill="#FBB5A3"/>
<path d="M15.202 15.06V0.523656C17.7552 0.491899 20.2675 1.16576 22.462 2.47093L15.202 15.06Z" fill="#ADDEF7"/>
</g>
<defs>
<clipPath id="clip0_289_5815">
<rect width="30" height="30" fill="white" transform="translate(0.14209)"/>
</clipPath>
</defs>
</svg>
