<svg width="40" height="18" viewBox="0 0 40 18" fill="none" xmlns="http://www.w3.org/2000/svg">
<path d="M40 8.30769H38.5467C37.9093 4.38092 34.6253 1.38462 30.6667 1.38462C29.0987 1.38462 27.64 1.86092 26.4053 2.67231L26.224 2.484C24.5157 0.886595 22.2988 0.00182785 20 0C17.7053 0 15.496 0.882 13.724 2.53523L13.5933 2.67092C12.3197 1.83088 10.8421 1.38472 9.33333 1.38462C7.44409 1.38633 5.61641 2.08243 4.1741 3.34959C2.73179 4.61676 1.76794 6.37318 1.45333 8.30769H0V11.0769H1.45333C2.09067 15.0037 5.37467 18 9.33333 18C13.7467 18 17.3333 14.2795 17.3333 9.69231C17.3346 7.81274 16.7184 5.98894 15.5867 4.52215C16.8015 3.39644 18.3718 2.77272 20 2.76923C21.636 2.76923 23.2133 3.39923 24.3907 4.49308L24.4147 4.51938C23.2817 5.98662 22.665 7.81158 22.6667 9.69231C22.6667 14.2795 26.252 18 30.6667 18C32.5559 17.9983 34.3836 17.3022 35.8259 16.035C37.2682 14.7679 38.2321 13.0114 38.5467 11.0769H40V8.30769ZM9.33333 15.2308C6.39333 15.2308 4 12.7454 4 9.69231C4 6.63923 6.39333 4.15385 9.33333 4.15385C12.2733 4.15385 14.6667 6.63923 14.6667 9.69231C14.6667 12.7454 12.2733 15.2308 9.33333 15.2308ZM30.6667 15.2308C27.7267 15.2308 25.3333 12.7454 25.3333 9.69231C25.3333 6.63923 27.7267 4.15385 30.6667 4.15385C33.6067 4.15385 36 6.63923 36 9.69231C36 12.7454 33.6067 15.2308 30.6667 15.2308Z" fill="black"/>
</svg>
