<svg width="35" height="26" viewBox="0 0 35 26" fill="none" xmlns="http://www.w3.org/2000/svg">
<path d="M28.7487 22.4145C28.9391 22.3046 29.0972 22.1464 29.2069 21.9558C29.3167 21.7653 29.3743 21.5492 29.3738 21.3293V10.5208L32.4995 9.31802V16.2507C32.4995 16.5823 32.6312 16.9003 32.8657 17.1348C33.1001 17.3693 33.4181 17.501 33.7497 17.501C34.0813 17.501 34.3993 17.3693 34.6338 17.1348C34.8683 16.9003 35 16.5823 35 16.2507V7.49889C34.9859 7.24873 34.9026 7.00739 34.7593 6.80185C34.616 6.5963 34.4184 6.43463 34.1886 6.3349L17.9352 0.0835862C17.6459 -0.0278621 17.3255 -0.0278621 17.0362 0.0835862L0.800322 6.3349C0.564728 6.42577 0.362173 6.58585 0.219317 6.79407C0.076461 7.00229 0 7.24888 0 7.50139C0 7.75391 0.076461 8.0005 0.219317 8.20872C0.362173 8.41693 0.564728 8.57701 0.800322 8.66789L5.61883 10.5158V21.3293C5.6184 21.5492 5.67596 21.7653 5.78572 21.9558C5.89547 22.1464 6.05354 22.3046 6.24396 22.4145C9.6451 24.4607 13.5276 25.5693 17.4963 25.6277C21.4654 25.5717 25.3485 24.4628 28.7487 22.4145V22.4145ZM4.7349 7.49889L17.4876 2.58911L30.2578 7.49889L17.5051 12.4087L4.7349 7.49889ZM8.11936 20.5941V11.4785L17.0537 14.9167C17.343 15.0281 17.6634 15.0281 17.9527 14.9167L26.8733 11.4847V20.5954C24.0296 22.2628 20.7927 23.1417 17.4962 23.1415C14.1997 23.1412 10.9628 22.2619 8.11936 20.5941V20.5941Z" fill="#FF2E2E"/>
</svg>
