<svg width="36" height="27" viewBox="0 0 36 27" fill="none" xmlns="http://www.w3.org/2000/svg">
<path d="M34.381 4.36129H32.3856V3.37712C32.3856 3.04924 32.2197 2.80336 31.9798 2.64343L31.9801 2.64304L31.9715 2.63844C27.7677 0.390831 22.5533 0.310027 18.3408 2.46959C14.1289 0.310412 8.91526 0.390571 4.78312 2.63798C4.62749 2.71608 4.50475 2.81664 4.42107 2.94221C4.33668 3.06882 4.2959 3.21508 4.2959 3.37712V4.36129H2.30056C1.52277 4.36129 0.9 4.98431 0.9 5.76228V24.699C0.9 25.477 1.52277 26.1 2.30056 26.1H2.34204H2.3835H2.42495H2.46637H2.50779H2.54919H2.59057H2.63194H2.67329H2.71464H2.75597H2.79729H2.83859H2.87989H2.92118H2.96246H3.00373H3.04499H3.08624H3.12749H3.16873H3.20996H3.25119H3.29241H3.33363H3.37485H3.41606H3.45727H3.49848H3.53969H3.5809H3.62211H3.66331H3.70452H3.74574H3.78695H3.82817H3.86939H3.91061H3.95184H3.99307H4.03432H4.07556H4.11682H4.15808H4.19935H4.24063H4.28191H4.32321H4.36452H4.40584H4.44717H4.48852H4.52988H4.57125H4.61263H4.65403H4.69545H4.73688H4.77832H4.81979H4.86127H4.90277H4.94429H4.98583H5.02739H5.06897H5.11057H5.15219H5.19383H5.2355H5.27719H5.31891H5.36065H5.40241H5.4442H5.48602H5.52787H5.56974H5.61164H5.65357H5.69553H5.73752H5.77954H5.82159H5.86367H5.90578H5.94793H5.99011H6.03233H6.07458H6.11687H6.15919H6.20154H6.24394H6.28637H6.32884H6.37135H6.4139H6.45649H6.49912H6.54179H6.5845H6.62726H6.67006H6.7129H6.75578H6.79871H6.84169H6.88471H6.92778H6.97089H7.01406H7.05727H7.10053H7.14384H7.1872H7.23061H7.27407H7.31758H7.36114H7.40476H7.44843H7.49216H7.53594H7.57977H7.62367H7.66761H7.71162H7.75568H7.7998H7.84398H7.88822H7.93252H7.97688H8.0213H8.06578H8.11033H8.15494H8.19961H8.24434H8.28914H8.33401H8.37894H8.42394H8.469H8.51414H8.55934H8.60461H8.64994H8.69535H8.74083H8.78638H8.83201H8.8777H8.92347H8.96931H9.01522H9.06121H9.10728H9.15342H9.19964H9.24593H9.2923H9.33876H9.38529H9.43189H9.47858H9.52535H9.5722H9.61913H9.66615H9.71325H9.76043H9.80769H9.85504H9.90248H9.95H9.9976H10.0453H10.0931H10.141H10.1889H10.237H10.2851H10.3333H10.3816H10.4301H10.4786H10.5272H10.5758H10.6246H10.6735H10.7225H10.7716H10.8207H10.87H10.9193H10.9688H11.0184H11.068H11.1178H11.1676H11.2176H11.2677H11.3178H11.3681H11.4185H11.4689H11.5195H11.5702H11.621H11.6719H11.7229H11.774H11.8252H11.8765H11.928H11.9795H12.0312H12.083H12.1348H12.1868H12.2389H12.2912H12.3435H12.3959H12.4485H12.5012H12.554H12.6069H12.6599H12.7131H12.7663H12.8197H12.8732H12.9268H12.9806H13.0345H13.0885H13.1426H13.1968H13.2512H13.3057H13.3603H13.415H13.4699H13.5249H13.58H13.6352H13.6906H13.7461H13.8018H13.8575H13.9134H13.9694H14.0256H14.0819H14.1383H14.1949H14.2516H14.3084H14.3654H14.4225H14.4797H14.5371H14.5946H14.6523H14.7101H14.768H14.8261H14.8843H14.9427H15.0012H15.0598H15.1186H15.1775H15.2366H15.2958H15.3552H15.4147H15.4744H15.5342H15.5941H15.6542H15.7145H15.7749H15.8354H15.8961H15.957H16.018H16.0792H16.1405H16.202H16.2636H16.3254H16.3873H16.4494H16.5116H16.574H16.6366H16.6993H16.7622H16.8252H16.8885H16.9518H17.0153H17.079H17.1429H17.2069H17.2711H17.3354H17.3999H17.4646H17.5294H17.5944H17.6596H17.725H17.7905H17.8562H17.922H17.988H18.0542H18.1206H18.1871H18.2538H18.3207H18.3878H18.455H18.5224H18.59H18.6578H18.7257H18.7938H18.8621H18.9306H18.9992H19.068H19.1371H19.2062H19.2756H19.3452H19.4149H19.4848H19.5549H19.6252H19.6957H19.7664H19.8372H19.9083H19.9795H20.0509H20.1225H20.1943H20.2663H20.3384H20.4108H20.4833H20.5561H20.629H20.7021H20.7755H20.849H20.9227H20.9966H21.0707H21.145H21.2195H21.2942H21.3691H21.4442H21.5195H21.595H21.6707H21.7466H21.8227H21.899H21.9755H22.0522H22.1291H22.2063H22.2836H22.3611H22.4389H22.5168H22.595H22.6733H22.7519H22.8307H22.9097H22.9889H23.0683H23.148H23.2278H23.3079H23.3881H23.4686H23.5493H23.6302H23.7114H23.7927H23.8743H23.9561H24.0381H24.1203H24.2027H24.2854H24.3683H24.4514H24.5347H24.6183H24.702H24.786H24.8703H24.9547H25.0394H25.1243H25.2094H25.2948H25.3804H25.4662H25.5522H25.6385H25.725H25.8117H25.8987H25.9859H26.0733H26.161H26.2489H26.337H26.4254H26.514H26.6028H26.6919H26.7812H26.8707H26.9605H27.0506H27.1408H27.2313H27.3221H27.4131H27.5043H27.5958H27.6875H27.7795H27.8717H27.9641H28.0568H28.1498H28.243H28.3364H28.4301H28.5241H28.6182H28.7127H28.8074H28.9023H28.9975H29.0929H29.1886H29.2846H29.3808H29.4772H29.574H29.6709H29.7681H29.8656H29.9634H30.0614H30.1596H30.2581H30.3569H30.4559H30.5552H30.6548H30.7546H30.8547H30.955H31.0557H31.1565H31.2577H31.3591H31.4607H31.5627H31.6649H31.7674H31.8701H31.9731H32.0764H32.18H32.2838H32.3879H32.4922H32.5969H32.7018H32.807H32.9125H33.0182H33.1242H33.2305H33.3371H33.4439H33.551H33.6584H33.7661H33.8741H33.9823H34.0908H34.1996H34.3087C35.0865 26.1 35.7093 25.477 35.7093 24.699V5.76718C35.7848 4.98206 35.155 4.36129 34.381 4.36129ZM30.7406 3.8733V21.4248C26.1499 21.7113 22.7183 22.2136 19.1633 23.9596V3.87276C22.7196 2.11659 27.1126 2.11628 30.7406 3.8733ZM5.94096 3.8733C9.56889 2.11628 13.9619 2.11659 17.5182 3.87276V23.9624C13.9642 22.2841 10.5337 21.7123 5.94096 21.4248V3.8733ZM2.54506 6.00684H4.2959V22.2416C4.2959 22.6508 4.62203 23.0628 5.11563 23.0643C8.81919 23.2665 11.6979 23.5941 14.4021 24.4544H2.54506V6.00684ZM34.1365 24.4544H22.2515C25.0187 23.5254 27.8438 23.1998 31.565 23.0643C31.7775 23.0637 31.9815 22.9583 32.1306 22.8092C32.2801 22.6596 32.3856 22.4548 32.3856 22.2416V6.00684H34.1365V24.4544Z" fill="#FF2E2E" stroke="black" stroke-width="0.2"/>
</svg>
