<svg width="31" height="30" viewBox="0 0 31 30" fill="none" xmlns="http://www.w3.org/2000/svg">
<path d="M15.5 30C12.5333 30 9.63319 29.1203 7.16645 27.472C4.69972 25.8238 2.77713 23.4811 1.64181 20.7403C0.506499 17.9994 0.209449 14.9834 0.788227 12.0737C1.36701 9.16394 2.79562 6.49119 4.8934 4.3934C6.99119 2.29562 9.66394 0.867006 12.5737 0.288227C15.4834 -0.290551 18.4994 0.00649929 21.2403 1.14181C23.9811 2.27713 26.3238 4.19972 27.972 6.66645C29.6203 9.13319 30.5 12.0333 30.5 15C30.5 18.9783 28.9196 22.7936 26.1066 25.6066C23.2936 28.4196 19.4783 30 15.5 30ZM15.5 2.50001C13.0277 2.50001 10.611 3.23312 8.55538 4.60664C6.49976 5.98015 4.89761 7.93239 3.95151 10.2165C3.00542 12.5005 2.75787 15.0139 3.24019 17.4386C3.72251 19.8634 4.91301 22.0907 6.66117 23.8388C8.40933 25.587 10.6366 26.7775 13.0614 27.2598C15.4861 27.7421 17.9995 27.4946 20.2835 26.5485C22.5676 25.6024 24.5199 24.0002 25.8934 21.9446C27.2669 19.889 28 17.4723 28 15C28 11.6848 26.683 8.50537 24.3388 6.16117C21.9946 3.81697 18.8152 2.50001 15.5 2.50001Z" fill="#111224"/>
<path d="M21.75 21.875C21.4402 21.8742 21.1417 21.7584 20.9125 21.55L14.6625 15.925C14.533 15.8081 14.4294 15.6655 14.3584 15.5061C14.2873 15.3468 14.2504 15.1744 14.25 15V8.75C14.25 8.41848 14.3817 8.10054 14.6161 7.86612C14.8505 7.6317 15.1685 7.5 15.5 7.5C15.8315 7.5 16.1495 7.6317 16.3839 7.86612C16.6183 8.10054 16.75 8.41848 16.75 8.75V14.4375L22.5875 19.6875C22.7786 19.856 22.9137 20.079 22.9746 20.3264C23.0354 20.5739 23.0192 20.834 22.9281 21.072C22.837 21.31 22.6753 21.5144 22.4648 21.6579C22.2542 21.8014 22.0048 21.8772 21.75 21.875Z" fill="#111224"/>
</svg>
