<svg width="30" height="30" viewBox="0 0 30 30" fill="none" xmlns="http://www.w3.org/2000/svg">
<path d="M15 0C12.0333 0 9.13319 0.879735 6.66645 2.52796C4.19971 4.17618 2.27713 6.51886 1.14181 9.25975C0.00649925 12.0006 -0.290551 15.0166 0.288227 17.9263C0.867006 20.8361 2.29562 23.5088 4.3934 25.6066C6.49119 27.7044 9.16394 29.133 12.0736 29.7118C14.9834 30.2905 17.9994 29.9935 20.7403 28.8582C23.4811 27.7229 25.8238 25.8003 27.472 23.3335C29.1203 20.8668 30 17.9667 30 15C30 11.0217 28.4196 7.20644 25.6066 4.3934C22.7936 1.58035 18.9783 0 15 0ZM8.57143 26.1321C8.73061 24.5463 9.47321 23.0761 10.6551 22.0069C11.8371 20.9377 13.3741 20.3456 14.9679 20.3456C16.5617 20.3456 18.0986 20.9377 19.2806 22.0069C20.4625 23.0761 21.2051 24.5463 21.3643 26.1321C19.422 27.2623 17.215 27.8577 14.9679 27.8577C12.7207 27.8577 10.5137 27.2623 8.57143 26.1321ZM23.2929 24.7821C22.8362 22.919 21.7677 21.2628 20.2584 20.0788C18.7491 18.8948 16.8862 18.2512 14.9679 18.2512C13.0495 18.2512 11.1867 18.8948 9.67735 20.0788C8.16803 21.2628 7.09954 22.919 6.64286 24.7821C4.63728 23.0781 3.20294 20.7996 2.53356 18.2543C1.86417 15.7091 1.99198 13.0198 2.89972 10.5495C3.80746 8.07925 5.45141 5.94704 7.60956 4.44084C9.7677 2.93465 12.3361 2.12702 14.9679 2.12702C17.5996 2.12702 20.168 2.93465 22.3262 4.44084C24.4843 5.94704 26.1283 8.07925 27.036 10.5495C27.9437 13.0198 28.0715 15.7091 27.4022 18.2543C26.7328 20.7996 25.2984 23.0781 23.2929 24.7821ZM15 6.42857C13.9405 6.42857 12.9047 6.74276 12.0237 7.33141C11.1428 7.92006 10.4561 8.75673 10.0506 9.73562C9.64518 10.7145 9.53909 11.7917 9.7458 12.8308C9.9525 13.87 10.4627 14.8246 11.2119 15.5738C11.9611 16.323 12.9157 16.8332 13.9549 17.0399C14.9941 17.2466 16.0712 17.1405 17.0501 16.7351C18.029 16.3296 18.8657 15.643 19.4543 14.762C20.043 13.881 20.3571 12.8453 20.3571 11.7857C20.3571 10.3649 19.7927 9.0023 18.7881 7.99764C17.7834 6.99298 16.4208 6.42857 15 6.42857ZM15 15C14.3643 15 13.7428 14.8115 13.2142 14.4583C12.6857 14.1051 12.2737 13.6031 12.0304 13.0158C11.7871 12.4284 11.7235 11.7821 11.8475 11.1586C11.9715 10.5351 12.2776 9.96239 12.7272 9.51287C13.1767 9.06334 13.7494 8.75721 14.3729 8.63319C14.9964 8.50916 15.6427 8.57282 16.2301 8.8161C16.8174 9.05938 17.3194 9.47136 17.6726 9.99995C18.0258 10.5285 18.2143 11.15 18.2143 11.7857C18.2143 12.6382 17.8756 13.4558 17.2728 14.0586C16.67 14.6613 15.8525 15 15 15Z" fill="#FF2E2E"/>
</svg>
