<svg width="30" height="27" viewBox="0 0 30 27" fill="none" xmlns="http://www.w3.org/2000/svg">
<path fill-rule="evenodd" clip-rule="evenodd" d="M0.997062 6.61759C1.66463 5.95002 2.57206 5.62052 3.54415 5.62052H26.4558C27.4279 5.62052 28.3354 5.95002 29.0029 6.61759C29.6705 7.28515 30 8.19259 30 9.16468V22.9117C30 23.8838 29.6705 24.7912 29.0029 25.4588C28.3354 26.1263 27.4279 26.4558 26.4558 26.4558H3.54415C2.57206 26.4558 1.66463 26.1263 0.997062 25.4588C0.329498 24.7912 0 23.8838 0 22.9117V9.16468C0 8.19259 0.329498 7.28515 0.997062 6.61759ZM2.76905 8.38957C2.6347 8.52392 2.50597 8.76206 2.50597 9.16468V22.9117C2.50597 23.3143 2.6347 23.5525 2.76905 23.6868C2.90339 23.8211 3.14154 23.9499 3.54415 23.9499H26.4558C26.8585 23.9499 27.0966 23.8211 27.231 23.6868C27.3653 23.5525 27.494 23.3143 27.494 22.9117V9.16468C27.494 8.76206 27.3653 8.52392 27.231 8.38957C27.0966 8.25523 26.8585 8.12649 26.4558 8.12649H3.54415C3.14154 8.12649 2.90339 8.25523 2.76905 8.38957Z" fill="#FF2E2E"/>
<path d="M20.7279 10.3103C20.0406 10.3103 19.5823 9.85203 19.5823 9.16468V3.43675C19.5823 2.7494 19.1241 2.29117 18.4368 2.29117H11.5632C10.8759 2.29117 10.4177 2.7494 10.4177 3.43675V9.16468C10.4177 9.85203 9.95943 10.3103 9.27208 10.3103C8.58472 10.3103 8.12649 9.85203 8.12649 9.16468V3.43675C8.12649 1.60382 9.73031 0 11.5632 0H18.4368C20.2697 0 21.8735 1.60382 21.8735 3.43675V9.16468C21.8735 9.85203 21.4153 10.3103 20.7279 10.3103Z" fill="#FF2E2E"/>
</svg>
